<svg class="logo" xmlns="http://www.w3.org/2000/svg" width="100" height="33.541"><path d="M61.902 2.442c-3.809.957-8.227 1.935-12.155 1.814-2.359-.072-4.593-.621-6.708-1.114C28.778-.181 15.903-1.437 0 2.213l1.022 6.688c.988.022 2.637.381 2.712 2.272.607 15.234 4.573 22.539 19.006 22.162 17.861-.466 22.505-14.761 23.482-20.2.524-2.919 2.027-3.216 3.707-3.261 2.976-.08 3.314 2.095 3.835 3.412 6.123 15.477 9.803 18.998 22.65 20.117 19.53 1.703 17.28-12.779 19.922-21.195.506-1.608 1.061-2.432 2.828-2.471L100 3.048C88.682.63 76.937-1.334 61.902 2.442zM4.923 6.486c-1.411 0-2.555-.291-2.555-.65 0-.359 1.144-.65 2.555-.65s2.555.292 2.555.65c0 .359-1.144.65-2.555.65zm36.136 10.311c-2.733 8.065-7.017 13.918-18.021 14.213-10.899 0-14.066-1.986-15.513-14.678 0-8.515-.558-13.5 15.606-13.47 10.899 1.046 22.331.942 17.928 13.935zm51.556-.464c-1.447 12.691-4.613 14.678-15.514 14.678-11.004-.295-15.288-6.148-18.021-14.213-4.402-12.994 7.029-12.89 17.929-13.935 16.163-.03 15.606 4.955 15.606 13.47zm2.74-9.196c-1.41 0-2.555-.292-2.555-.65 0-.359 1.145-.65 2.555-.65s2.555.291 2.555.65c0 .358-1.144.65-2.555.65z" fill="#bf616a"/></svg>